<svg xmlns="http://www.w3.org/2000/svg" viewBox="0 0 1600 900" role="img" aria-labelledby="title desc"><title id="title">Webwilds</title><desc id="desc">A fantasy forest of connected screens, paths, nodes and glowing web links.</desc><defs><linearGradient id="bg" x1="0" y1="0" x2="0" y2="1"><stop stop-color="#dbe9f0"/><stop offset="1" stop-color="#d9efe3"/></linearGradient></defs><rect width="1600" height="900" fill="url(#bg)"/><path d="M0 720 C200 570 390 620 560 690 C760 770 900 560 1080 650 C1300 760 1440 580 1600 620 V900 H0Z" fill="#567f76"/><g stroke="#dff3ea" stroke-width="10" fill="none"><path d="M180 500 C420 350 520 620 780 470 S1100 350 1420 510"/><path d="M470 320 L470 620 M820 300 L820 650 M1160 330 L1160 660"/></g><g fill="#fffaf4" stroke="#4e7474" stroke-width="9"><rect x="350" y="210" width="230" height="150" rx="24"/><rect x="700" y="180" width="260" height="175" rx="24"/><rect x="1050" y="220" width="230" height="150" rx="24"/></g><g fill="#e9917d"><circle cx="470" cy="285" r="20"/><circle cx="830" cy="270" r="20"/><circle cx="1165" cy="295" r="20"/></g><g fill="#fff1c8"><circle cx="170" cy="260" r="12"/><circle cx="1370" cy="300" r="12"/><circle cx="620" cy="130" r="10"/></g></svg>